<svg xmlns="http://www.w3.org/2000/svg" width="512" height="512" viewBox="0 0 512 512" version="1.1"><path d="" stroke="none" fill="#080404" fill-rule="evenodd"/><path d="M 5.314 16.950 C -1.175 20.907, -2.141 29.084, 3.250 34.412 C 6.334 37.460, 7.445 37.789, 25 40.861 C 49.876 45.213, 56.793 48.471, 66.068 60.205 C 72.457 68.288, 73.210 71.773, 94.465 191.717 C 105.749 255.398, 115.719 309.525, 116.619 312 C 122.703 328.728, 135.149 340.759, 153 347.167 C 162.147 350.450, 409.905 350.908, 420.500 347.661 C 450.146 338.576, 450.961 337.014, 485.052 224.050 C 511.971 134.848, 513.370 129.402, 510.439 125.217 C 506.547 119.660, 519.980 120, 304.245 120 C 105.391 120, 105.391 120, 101.110 95.750 C 91.542 41.549, 78.457 27.096, 31.072 18.387 C 9.520 14.426, 9.460 14.422, 5.314 16.950 M 110.006 144.250 C 110.034 150.568, 138.314 303.691, 140.191 307.686 C 143.070 313.814, 149.165 319.922, 155.526 323.052 C 162.776 326.620, 407.951 327.487, 417.329 323.978 C 424.458 321.311, 431.262 315.227, 434.401 308.714 C 436.408 304.551, 485 146.030, 485 143.647 C 485 143.291, 400.625 143, 297.500 143 C 148.164 143, 110.001 143.254, 110.006 144.250 M 153.202 378.022 C 107.453 390.008, 92.001 447.098, 125.452 480.548 C 160.455 515.551, 219.968 496.580, 228.917 447.566 C 236.746 404.683, 195.621 366.909, 153.202 378.022 M 389.512 377.614 C 343.594 388.715, 327.192 446.998, 360.578 480.428 C 400.331 520.233, 467.524 490.166, 464.792 433.795 C 462.964 396.082, 426.301 368.721, 389.512 377.614 M 159.746 400.022 C 140.567 404.867, 127.670 424.435, 131.089 443.500 C 138.582 485.273, 198.730 485.165, 206.092 443.366 C 210.646 417.514, 185.095 393.619, 159.746 400.022 M 394.024 400.603 C 366.144 408.095, 356.567 443.662, 376.943 464.039 C 395.483 482.578, 427.043 477.017, 438.314 453.225 C 452.021 424.290, 425.064 392.262, 394.024 400.603" stroke="none" fill="#040404" fill-rule="evenodd"/></svg>